<svg width="559" height="200" viewBox="0 0 559 200" fill="none" xmlns="http://www.w3.org/2000/svg">
<path d="M371.604 89.7776C374.268 92.7339 376.939 95.6828 379.67 98.7066C389.177 89.1999 398.061 80.2634 407.027 71.4094C408.153 70.2914 408.288 69.1584 408.288 67.7328C408.288 54.6094 408.213 41.471 408.325 28.3777C408.325 26.0441 407.702 25.4214 405.391 25.4814C399.029 25.639 392.636 25.6089 386.295 25.4814C384.315 25.4439 383.512 26.0366 383.759 28.01C383.801 28.6321 383.801 29.2563 383.759 29.8784C383.759 44.3673 383.722 44.3373 372.834 53.8891C371.671 54.917 371.206 54.8195 370.231 53.8066C367.114 50.5651 363.938 47.3862 360.701 44.2698C360.212 43.8023 359.834 43.2319 359.592 42.5999C359.351 41.9679 359.253 41.2901 359.306 40.6157C359.351 28.2501 359.388 15.8546 359.306 3.51156C359.306 1.32058 359.996 0.84787 362.067 0.855373C377.426 0.93791 392.786 0.787842 408.145 0.930405C422.139 1.05796 432.629 11.4951 432.801 25.6915C433.026 43.1818 432.801 60.6721 432.906 78.1624C432.906 80.0683 431.976 81.1188 430.82 82.2743C421.689 91.4059 412.685 100.59 403.471 109.549C401.377 111.575 401.617 112.55 403.546 114.456C413.623 124.338 423.497 134.423 433.559 144.312C435.39 146.105 435.592 147.081 433.634 148.949C428.479 153.849 423.565 159.004 418.552 164.046L418.44 163.866L418.372 163.911C407.217 152.511 396.055 141.098 384.885 129.673C383.294 131.271 383.797 132.457 383.797 133.5C383.797 154.119 383.722 174.768 383.797 195.372C383.797 197.893 383.317 198.816 380.578 198.719C374.343 198.501 368.085 198.576 361.819 198.719C359.891 198.756 359.246 198.291 359.246 196.265C359.306 165.386 359.306 134.513 359.246 103.644C359.246 102.061 359.996 101.13 360.972 100.132C364.431 96.7107 367.837 93.2292 371.259 89.7701L371.394 89.8902L371.604 89.7776Z" fill="white"/>
<path d="M418.38 163.918L418.447 163.873L418.56 164.053C423.655 169.178 428.697 174.355 433.874 179.383C435.375 180.816 435.54 181.634 433.934 183.134C429.245 187.599 424.69 192.221 420.181 196.873C418.912 198.179 418.14 198.509 416.691 197.001C412.129 192.236 407.477 187.539 402.69 182.992C401.145 181.491 401.482 180.741 402.788 179.488C408.033 174.37 413.187 169.126 418.38 163.918Z" fill="#CA3428"/>
<path d="M371.604 89.7776L371.454 89.8752L371.319 89.7551C366.246 84.5928 361.219 79.393 356.072 74.3132C354.706 72.9626 354.158 72.1748 355.869 70.5616C360.671 66.0145 365.301 61.2874 369.908 56.5453C371.079 55.3373 371.746 54.9696 373.104 56.3877C377.772 61.2449 382.536 66.0095 387.398 70.6816C388.952 72.1823 388.464 72.9326 387.218 74.1707C381.966 79.3255 376.804 84.5628 371.604 89.7776Z" fill="#F78F21"/>
<path d="M27.4464 199.589C27.9213 199.589 28.3307 199.255 28.4261 198.79L44.2207 121.727H75.8939L91.6281 198.789C91.7232 199.255 92.1327 199.589 92.6079 199.589H118.813C119.451 199.589 119.926 199 119.791 198.377L77.2222 2.28852C77.1224 1.82869 76.7155 1.50067 76.245 1.50067H43.8694C43.3989 1.50067 42.9921 1.82855 42.8922 2.28824L0.263577 198.377C0.128075 199 0.602892 199.589 1.24075 199.589H27.4464ZM44.2207 121.727L59.4723 47.2444C59.5292 46.9665 59.7737 46.767 60.0573 46.767C60.3409 46.767 60.5854 46.9665 60.6423 47.2444L75.8939 121.727H44.2207Z" fill="white"/>
<path d="M258.55 199.589C259.025 199.589 259.434 199.255 259.529 198.79L275.324 121.727H306.997L322.731 198.789C322.827 199.255 323.236 199.589 323.711 199.589H349.917C350.554 199.589 351.029 199 350.894 198.377L308.326 2.28852C308.226 1.82869 307.819 1.50067 307.348 1.50067H274.973C274.502 1.50067 274.095 1.82855 273.996 2.28824L231.367 198.377C231.231 199 231.706 199.589 232.344 199.589H258.55ZM275.324 121.727L290.576 47.2444C290.633 46.9665 290.877 46.767 291.161 46.767C291.444 46.767 291.689 46.9665 291.746 47.2444L306.997 121.727H275.324Z" fill="white"/>
<path d="M466.393 198.089C466.868 198.089 467.277 197.755 467.372 197.289L483.167 120.227H514.84L530.574 197.289C530.669 197.754 531.079 198.089 531.554 198.089H557.76C558.397 198.089 558.872 197.5 558.737 196.876L516.169 0.787846C516.069 0.328022 515.662 0 515.191 0H482.816C482.345 0 481.938 0.32788 481.839 0.787567L439.21 196.876C439.074 197.499 439.549 198.089 440.187 198.089H466.393ZM483.167 120.227L498.419 45.7437C498.475 45.4658 498.72 45.2663 499.004 45.2663C499.287 45.2663 499.532 45.4659 499.589 45.7437L514.84 120.227H483.167Z" fill="white"/>
<path d="M140.15 79.3729C139.819 78.9978 139.512 78.6226 139.167 78.2549C135.505 74.5032 130.455 71.3443 128.572 66.8573C126.734 62.4979 128.137 56.7728 128.129 51.6555C128.129 35.8985 128.189 20.1414 128.069 4.38438C128.069 1.72819 128.467 0.632709 131.468 0.760266C137.583 1.02288 143.714 0.932843 149.829 0.760266C152.08 0.707742 152.83 1.18045 152.83 3.61154C152.735 24.1207 152.735 44.6149 152.83 65.094C152.84 65.8299 152.688 66.5589 152.385 67.2294C152.081 67.8998 151.634 68.4952 151.075 68.9733C147.6 72.3873 144.194 75.8614 140.757 79.3204C140.553 79.2902 140.345 79.3082 140.15 79.3729Z" fill="white"/>
<path d="M140.517 148.861C144.156 152.441 147.758 156.065 151.472 159.569C152.613 160.642 152.793 161.82 152.793 163.23C152.755 174.088 152.733 184.945 152.793 195.802C152.793 197.783 152.493 198.691 150.197 198.631C143.694 198.476 137.206 198.476 130.733 198.631C128.482 198.684 128.054 197.881 128.077 195.832C128.157 184.973 128.157 174.115 128.077 163.26C128.042 162.524 128.171 161.789 128.455 161.109C128.74 160.429 129.172 159.821 129.72 159.329C133.314 155.87 136.826 152.32 140.367 148.824L140.517 148.861Z" fill="white"/>
<path d="M140.517 148.861L140.382 148.809C135.475 143.857 130.628 138.829 125.616 133.997C123.657 132.114 123.17 130.996 125.488 128.857C130.613 124.138 135.393 119.051 140.315 114.113H140.525C145.635 119.223 150.669 124.423 155.899 129.413C157.617 131.056 157.49 131.926 155.854 133.502C150.647 138.529 145.612 143.729 140.517 148.861Z" fill="#CB3729"/>
<path d="M140.525 114.121H140.315C135.235 109.026 130.223 103.856 125.038 98.8741C123.357 97.2534 123.432 96.353 125.038 94.7548C130.163 89.7275 135.107 84.5202 140.12 79.3804C140.317 79.3354 140.522 79.3354 140.72 79.3804C145.747 84.5127 150.699 89.735 155.847 94.7473C157.527 96.3905 157.43 97.2984 155.802 98.8666C150.639 103.856 145.612 109.019 140.525 114.121Z" fill="#339AA4"/>
<path d="M161.692 198.759L161.692 118.627C161.692 118.074 162.139 117.627 162.692 117.627H171.744C172.169 117.627 172.548 117.895 172.688 118.297L200.565 198.089C200.705 198.49 201.083 198.759 201.509 198.759H225.553C226.244 198.759 226.727 198.074 226.495 197.423L188.249 90.1516C188.164 89.9125 188.173 89.65 188.274 89.4172L225.908 2.8191C226.195 2.15867 225.711 1.42053 224.991 1.42053H200.953C200.553 1.42053 200.191 1.65915 200.034 2.02708L163.269 87.932C163.14 88.2344 162.843 88.4305 162.514 88.4305C162.06 88.4305 161.692 88.0625 161.692 87.6086L161.692 1.42053L161.692 198.759Z" fill="white"/>
</svg>
